<?xml version="1.0" encoding="UTF-8"?>
<svg width="300px" height="104px" viewBox="0 0 300 104" version="1.1" xmlns="http://www.w3.org/2000/svg" xmlns:xlink="http://www.w3.org/1999/xlink">
    <!-- Generator: Sketch 52.2 (67145) - http://www.bohemiancoding.com/sketch -->
    <title>indosat</title>
    <desc>Created with Sketch.</desc>
    <g id="Page-1" stroke="none" stroke-width="1" fill="none" fill-rule="evenodd">
        <g id="indosat">
            <g id="indosat-1" transform="translate(60.000000, 3.000000)">
                <path d="M76.9203853,84.2705279 C76.9203853,91.3108504 71.2903479,97 64.3231767,97 C57.3560055,97 51.7259682,91.3108504 51.7259682,84.2705279 L51.7259682,75.061217 C51.7259682,82.1015396 46.0959308,87.7906891 39.1639473,87.7906891 C32.1967761,87.7906891 26.6019265,82.1015396 26.6019265,75.061217 L26.5667387,75.061217 L26.5667387,70.2254399 C26.3204246,77.4079912 20.4792609,83.1326979 13.3009632,83.1326979 C5.98191468,83.1682551 0,77.1590909 0,69.7276393 C0,69.5854106 0,69.478739 0.0351877334,69.3365103 L0.0351877334,27.6990469 C0.0351877334,27.5568182 0,27.4501466 0,27.3079179 C0,19.9120235 5.98191468,13.8673021 13.3009632,13.8673021 C20.4792609,13.8673021 26.3204246,19.5920088 26.5667387,26.8101173 L26.5667387,12.7294721 L26.6019265,12.7294721 C26.5667387,5.68914956 32.1967761,0 39.1639473,0 C46.0959308,0 51.7259682,5.68914956 51.7259682,12.7294721 L51.7259682,21.938783 C51.7259682,14.8984604 57.3560055,9.20931085 64.3231767,9.20931085 C71.2551602,9.20931085 76.9203853,14.8984604 76.9203853,21.938783 L76.9203853,26.5967742 C76.955573,19.5920088 82.5856104,13.9384164 89.4824061,13.9384164 C96.4143896,13.9384164 102.044427,19.627566 102.079615,26.5967742 L102.079615,21.9743402 C102.079615,14.9340176 107.709652,9.24486804 114.676823,9.24486804 C121.643994,9.24486804 127.238844,14.9340176 127.238844,21.9743402 L127.238844,26.6678886 L127.30922,26.6678886 C127.30922,19.627566 132.939257,13.9384164 139.87124,13.9384164 C146.627285,13.9384164 152.116572,19.3075513 152.433261,26.0278592 L152.433261,18.3119501 L152.433261,18.0274927 C152.433261,10.5960411 158.379988,4.58687683 165.699037,4.58687683 C173.018085,4.58687683 179,10.5960411 179,17.9919355 L179,69.6920821 C179,77.1235337 173.053273,83.0971408 165.734224,83.0971408 C158.415176,83.0971408 152.433261,77.0879765 152.433261,69.6920821 L152.433261,75.0256598 C152.433261,82.0304252 146.803224,87.755132 139.836053,87.755132 C132.868881,87.755132 127.274032,82.0659824 127.274032,75.0256598 L127.238844,75.0256598 L127.238844,70.438783 C127.238844,77.4435484 121.608807,83.1326979 114.676823,83.1326979 C107.709652,83.1326979 102.079615,77.4435484 102.079615,70.438783 L102.079615,75.061217 C102.079615,82.0659824 96.4495774,87.755132 89.4824061,87.755132 C82.5504226,87.755132 76.9203853,82.0659824 76.9203853,75.061217 L76.9203853,84.2705279" id="Path" fill="#FFD400"></path>
                <path d="M171.610576,47.6574307 C169.640063,46.5994962 167.388048,46 164.995282,46 C162.602516,46 160.350501,46.5994962 158.379988,47.6574307 C155.811284,49.0680101 153.70002,51.2544081 152.398074,53.8992443 C151.096127,51.2191436 149.020051,49.0327456 146.416159,47.6574307 C144.445646,46.5994962 142.193631,46 139.800865,46 C137.408099,46 135.156084,46.5994962 133.185571,47.6574307 C130.581679,49.0680101 128.470415,51.2544081 127.203656,53.9697733 C125.90171,51.2896725 123.790446,49.0680101 121.186554,47.6574307 C119.216041,46.5994962 116.964026,46 114.606448,46 C112.213682,46 109.961667,46.5994962 107.991154,47.6574307 C105.422449,49.0327456 103.311185,51.2191436 102.044427,53.8639798 C100.742481,51.2191436 98.6664046,49.0680101 96.0977,47.6574307 C94.1271869,46.5994962 91.875172,46 89.4824061,46 C87.0896403,46 84.8376253,46.5994962 82.8671122,47.6574307 C80.26322,49.0680101 78.151956,51.2544081 76.8851976,53.8992443 C75.5832514,51.2191436 73.4719874,49.0327456 70.9032829,47.6574307 C68.9327698,46.5994962 66.6807549,46 64.3231767,46 C61.9304109,46 59.6783959,46.5994962 57.7078828,47.6574307 C55.1039906,49.0680101 52.9927266,51.2544081 51.7259682,53.8992443 C50.4592098,51.2191436 48.3479457,49.0327456 45.7440535,47.6574307 C43.7735404,46.5994962 41.5215255,46 39.1287596,46 C36.7359937,46 34.4839788,46.5994962 32.5134657,47.6574307 C29.9095734,49.0680101 27.7983094,51.2544081 26.531551,53.8992443 C25.2647926,51.2191436 23.1535286,49.0327456 20.5496363,47.6574307 C18.5791233,46.5994962 16.3271083,46 13.9343424,46 C11.5415766,46 9.28956163,46.5994962 7.31904856,47.6574307 C2.99095734,50.0201511 0,54.675063 0,60 C0,67.7229219 6.26341655,74 13.9695302,74 C19.5291921,74 24.2795361,70.7556675 26.5667387,66.1007557 C28.8539414,70.7556675 33.6394732,74 39.1639473,74 C44.6884215,74 49.4739532,70.7556675 51.7259682,66.1007557 C53.9779831,70.7556675 58.7635148,74 64.3231767,74 C69.8476509,74 74.6331826,70.7556675 76.9203853,66.1007557 C79.1724002,70.7556675 83.957932,74 89.5175939,74 C95.042068,74 99.792412,70.790932 102.079615,66.1360202 C104.366817,70.790932 109.117161,74 114.641636,74 C120.201297,74 124.986829,70.7556675 127.238844,66.0302267 C129.490859,70.720403 134.276391,74 139.836053,74 C145.360527,74 150.146059,70.7556675 152.433261,66.1007557 C154.685276,70.7556675 159.470808,74 165.03047,74 C172.771771,74 179,67.7229219 179,60 C179,54.675063 176.009043,50.0201511 171.610576,47.6574307" id="Path" fill="#ED1C24"></path>
                <path d="M121.730679,59.5903614 L121.730679,47.3373494 C120.852459,46.7951807 119.903981,46.3614458 118.885246,46 L118.885246,54.0240964 L118.674473,53.8433735 C118.4637,53.626506 118.18267,53.4457831 117.901639,53.2289157 C117.58548,53.0481928 117.234192,52.8674699 116.882904,52.7228916 C116.531616,52.5783133 116.145199,52.4698795 115.758782,52.3614458 C115.372365,52.253012 114.985948,52.2168675 114.63466,52.2168675 C113.651054,52.2168675 112.702576,52.3975904 111.859485,52.7951807 C110.981265,53.1927711 110.24356,53.7349398 109.611241,54.3493976 C108.978923,55 108.451991,55.7951807 108.100703,56.6626506 C107.714286,57.5301205 107.538642,58.5060241 107.538642,59.5180723 C107.538642,60.5301205 107.714286,61.4698795 108.100703,62.373494 C108.451991,63.2771084 108.978923,64.0361446 109.611241,64.686747 C110.24356,65.3373494 111.016393,65.8795181 111.859485,66.2409639 C112.702576,66.6385542 113.651054,66.8192771 114.63466,66.8192771 C115.618267,66.8192771 116.566745,66.6385542 117.409836,66.2409639 C118.288056,65.8795181 119.025761,65.3373494 119.65808,64.686747 C120.290398,64.0361446 120.81733,63.2409639 121.168618,62.373494 C121.555035,61.6144578 121.730679,60.6385542 121.730679,59.5903614 Z M118.885246,59.5903614 C118.885246,60.2048193 118.779859,60.746988 118.533958,61.2891566 C118.323185,61.8313253 118.007026,62.2650602 117.620609,62.6987952 C117.234192,63.0963855 116.777518,63.3855422 116.250585,63.6385542 C115.723653,63.8915663 115.196721,64 114.599532,64 C114.002342,64 113.440281,63.8915663 112.913349,63.6385542 C112.421546,63.3855422 111.929742,63.0963855 111.543326,62.6987952 C111.156909,62.3012048 110.875878,61.8313253 110.629977,61.2891566 C110.419204,60.746988 110.278689,60.1686747 110.278689,59.5903614 C110.278689,58.9759036 110.419204,58.3975904 110.629977,57.8554217 C110.875878,57.313253 111.156909,56.8795181 111.543326,56.4819277 C111.929742,56.0843373 112.386417,55.7590361 112.913349,55.5421687 C113.967213,55.0722892 115.196721,55.0722892 116.215457,55.5421687 C116.742389,55.7590361 117.199063,56.0843373 117.58548,56.4819277 C117.971897,56.8795181 118.288056,57.3493976 118.498829,57.8554217 C118.779859,58.4337349 118.885246,59.0120482 118.885246,59.5903614 Z M19.1194379,54.5301205 C18.4871194,53.8795181 17.7494145,53.3373494 16.8711944,52.939759 C16.028103,52.5421687 15.0796253,52.3614458 14.0960187,52.3614458 C13.1124122,52.3614458 12.1639344,52.5421687 11.3208431,52.939759 C10.442623,53.3373494 9.70491803,53.8795181 9.07259953,54.5301205 C8.44028103,55.2168675 7.91334895,55.9759036 7.56206089,56.8433735 C7.17564403,57.7108434 7,58.686747 7,59.6987952 C7,60.7108434 7.17564403,61.686747 7.56206089,62.5542169 C7.94847775,63.4578313 8.44028103,64.253012 9.07259953,64.8674699 C9.70491803,65.5180723 10.442623,66.060241 11.3208431,66.4216867 C12.1990632,66.8192771 13.1124122,67 14.0960187,67 C15.0796253,67 16.028103,66.8192771 16.8711944,66.4216867 C17.7494145,66.0240964 18.4871194,65.5180723 19.1194379,64.8674699 C19.7517564,64.2168675 20.2786885,63.4578313 20.6299766,62.5542169 C21.0163934,61.686747 21.1920375,60.7108434 21.1920375,59.6987952 C21.1920375,58.686747 21.0163934,57.7108434 20.6299766,56.8433735 C20.2786885,55.9759036 19.7517564,55.2168675 19.1194379,54.5301205 Z M18.030445,61.4337349 C17.7845433,61.9759036 17.4683841,62.4457831 17.117096,62.8433735 C16.7306792,63.2409639 16.2740047,63.5662651 15.7470726,63.7831325 C15.2201405,64 14.6580796,64.1445783 14.0960187,64.1445783 C13.498829,64.1445783 12.971897,64 12.4449649,63.7831325 C11.9180328,63.5301205 11.4613583,63.2409639 11.1100703,62.8433735 C10.7236534,62.4457831 10.442623,61.9759036 10.1967213,61.4337349 C9.98594848,60.8915663 9.84543326,60.313253 9.84543326,59.7349398 C9.84543326,59.1204819 9.98594848,58.5421687 10.1967213,58 C10.442623,57.4578313 10.7236534,56.9879518 11.1100703,56.5903614 C11.4964871,56.1927711 11.9531616,55.9036145 12.4449649,55.6506024 C12.971897,55.4337349 13.5339578,55.2891566 14.0960187,55.2891566 C14.6932084,55.2891566 15.2201405,55.4337349 15.7470726,55.6506024 C16.2388759,55.9036145 16.6955504,56.1927711 17.117096,56.5903614 C17.5035129,56.9879518 17.8196721,57.4578313 18.030445,58 C18.4871194,59.0481928 18.4871194,60.3493976 18.030445,61.4337349 Z M44.2716628,54.5301205 C43.6393443,53.8795181 42.8665105,53.3373494 42.0234192,52.939759 C41.1803279,52.5421687 40.2318501,52.3614458 39.2482436,52.3614458 C38.2295082,52.3614458 37.3161593,52.5421687 36.4730679,52.939759 C35.5948478,53.3373494 34.8571429,53.8795181 34.2248244,54.5301205 C33.557377,55.2168675 33.0655738,55.9759036 32.7142857,56.8433735 C32.3278689,57.7108434 32.1522248,58.686747 32.1522248,59.6987952 C32.1522248,60.7108434 32.3278689,61.686747 32.7142857,62.5542169 C33.1007026,63.4578313 33.5925059,64.253012 34.2248244,64.8674699 C34.8571429,65.5180723 35.5948478,66.060241 36.4730679,66.4216867 C37.3161593,66.8192771 38.264637,67 39.2482436,67 C40.2318501,67 41.1803279,66.8192771 42.0234192,66.4216867 C42.8665105,66.0240964 43.6393443,65.5180723 44.2716628,64.8674699 C44.9039813,64.2168675 45.4309133,63.4578313 45.7822014,62.5542169 C46.1686183,61.686747 46.3442623,60.7108434 46.3442623,59.6987952 C46.3442623,58.686747 46.1686183,57.7108434 45.7822014,56.8433735 C45.3957845,55.9759036 44.9039813,55.2168675 44.2716628,54.5301205 Z M43.147541,61.4337349 C42.9016393,61.9759036 42.6206089,62.4457831 42.234192,62.8433735 C41.8477752,63.2409639 41.3911007,63.5662651 40.8992974,63.7831325 C40.3723653,64 39.8103044,64.1445783 39.2482436,64.1445783 C38.6510539,64.1445783 38.088993,64 37.5620609,63.7831325 C37.0702576,63.5301205 36.6135831,63.2409639 36.2271663,62.8433735 C35.8407494,62.4457831 35.559719,61.9759036 35.3138173,61.4337349 C35.1030445,60.8915663 34.9625293,60.313253 34.9625293,59.7349398 C34.9625293,59.1204819 35.0679157,58.5421687 35.3138173,58 C35.559719,57.4578313 35.8758782,56.9879518 36.2271663,56.5903614 C36.6135831,56.1927711 37.0702576,55.9036145 37.5620609,55.6506024 C38.088993,55.4337349 38.6510539,55.2891566 39.2482436,55.2891566 C39.8103044,55.2891566 40.3723653,55.4337349 40.8992974,55.6506024 C41.3911007,55.9036145 41.8477752,56.1927711 42.234192,56.5903614 C42.6206089,56.9879518 42.9367681,57.4578313 43.147541,58 C43.6042155,59.0481928 43.6042155,60.3493976 43.147541,61.4337349 Z M144.775176,54.5301205 C144.142857,53.8795181 143.370023,53.3373494 142.526932,52.939759 C141.683841,52.5421687 140.735363,52.3614458 139.751756,52.3614458 C138.76815,52.3614458 137.819672,52.5421687 136.976581,52.939759 C136.098361,53.3373494 135.360656,53.8795181 134.728337,54.5301205 C134.096019,55.2168675 133.604215,55.9759036 133.217799,56.8433735 C132.831382,57.7108434 132.655738,58.686747 132.655738,59.6987952 C132.655738,60.7108434 132.831382,61.686747 133.217799,62.5542169 C133.604215,63.4578313 134.096019,64.253012 134.728337,64.8674699 C135.360656,65.5180723 136.098361,66.060241 136.976581,66.4216867 C137.854801,66.8192771 138.76815,67 139.751756,67 C140.735363,67 141.683841,66.8192771 142.526932,66.4216867 C143.370023,66.0240964 144.142857,65.5180723 144.775176,64.8674699 C145.407494,64.2168675 145.899297,63.4578313 146.285714,62.5542169 C146.672131,61.686747 146.847775,60.7108434 146.847775,59.6987952 C146.847775,58.686747 146.672131,57.7108434 146.285714,56.8433735 C145.899297,55.9759036 145.407494,55.2168675 144.775176,54.5301205 Z M143.686183,61.4337349 C143.440281,61.9759036 143.159251,62.4457831 142.772834,62.8433735 C142.386417,63.2409639 141.929742,63.5662651 141.40281,63.7831325 C140.875878,64 140.348946,64.1445783 139.751756,64.1445783 C139.154567,64.1445783 138.627635,64 138.100703,63.7831325 C137.57377,63.5301205 137.117096,63.2409639 136.730679,62.8433735 C136.344262,62.4457831 136.028103,61.9759036 135.81733,61.4337349 C135.606557,60.8915663 135.501171,60.313253 135.501171,59.7349398 C135.501171,59.1204819 135.606557,58.5421687 135.81733,58 C136.028103,57.4578313 136.344262,56.9879518 136.730679,56.5903614 C137.117096,56.1927711 137.57377,55.9036145 138.100703,55.6506024 C138.627635,55.4337349 139.154567,55.2891566 139.751756,55.2891566 C140.348946,55.2891566 140.875878,55.4337349 141.40281,55.6506024 C141.929742,55.9036145 142.386417,56.1927711 142.772834,56.5903614 C143.159251,56.9879518 143.440281,57.4578313 143.686183,58 C144.107728,59.0481928 144.107728,60.3493976 143.686183,61.4337349 Z M169.9274,54.5301205 C169.259953,53.8795181 168.522248,53.3373494 167.679157,52.939759 C166.800937,52.5421687 165.887588,52.3614458 164.903981,52.3614458 C163.920375,52.3614458 162.971897,52.5421687 162.128806,52.939759 C161.285714,53.3373494 160.512881,53.8795181 159.880562,54.5301205 C159.248244,55.2168675 158.75644,55.9759036 158.370023,56.8433735 C157.983607,57.7108434 157.807963,58.686747 157.807963,59.6987952 C157.807963,60.7108434 157.983607,61.686747 158.370023,62.5542169 C158.75644,63.4578313 159.248244,64.253012 159.880562,64.8674699 C160.512881,65.5180723 161.250585,66.060241 162.128806,66.4216867 C163.007026,66.8192771 163.920375,67 164.903981,67 C165.887588,67 166.836066,66.8192771 167.679157,66.4216867 C168.522248,66.0240964 169.259953,65.5180723 169.9274,64.8674699 C170.559719,64.2168675 171.051522,63.4578313 171.437939,62.5542169 C171.824356,61.686747 172,60.7108434 172,59.6987952 C172,58.686747 171.824356,57.7108434 171.437939,56.8433735 C171.051522,55.9759036 170.52459,55.2168675 169.9274,54.5301205 Z M168.803279,61.4337349 C168.557377,61.9759036 168.276347,62.4457831 167.88993,62.8433735 C167.503513,63.2409639 167.046838,63.5662651 166.519906,63.7831325 C165.992974,64 165.430913,64.1445783 164.868852,64.1445783 C164.271663,64.1445783 163.709602,64 163.217799,63.7831325 C162.690867,63.5301205 162.234192,63.2409639 161.882904,62.8433735 C161.496487,62.4457831 161.180328,61.9759036 160.969555,61.4337349 C160.758782,60.8915663 160.653396,60.313253 160.653396,59.7349398 C160.653396,59.1204819 160.758782,58.5421687 160.969555,58 C161.215457,57.4578313 161.496487,56.9879518 161.882904,56.5903614 C162.269321,56.1927711 162.725995,55.9036145 163.217799,55.6506024 C163.744731,55.4337349 164.271663,55.2891566 164.868852,55.2891566 C165.466042,55.2891566 165.992974,55.4337349 166.519906,55.6506024 C167.046838,55.9036145 167.503513,56.1927711 167.88993,56.5903614 C168.276347,56.9879518 168.557377,57.4578313 168.803279,58 C169.259953,59.0481928 169.259953,60.3493976 168.803279,61.4337349 Z M67.3864169,56.5542169 C67.7728337,56.9518072 68.088993,57.4216867 68.2997658,57.9638554 C68.440281,58.253012 68.5105386,58.5783133 68.5807963,58.9036145 L71.4613583,58.9036145 C71.3911007,58.1445783 71.2154567,57.4578313 70.9344262,56.8072289 C70.5480094,55.9036145 70.0210773,55.1445783 69.4238876,54.4939759 C68.7915691,53.8433735 68.0187354,53.3012048 67.175644,52.939759 C66.3325527,52.5421687 65.3840749,52.3614458 64.4004684,52.3614458 C63.4168618,52.3614458 62.4683841,52.5421687 61.6252927,52.939759 C60.7822014,53.3373494 60.0093677,53.8433735 59.3770492,54.4939759 C58.7447307,55.1445783 58.2529274,55.939759 57.8665105,56.8072289 C57.5152225,57.7108434 57.3044496,58.6506024 57.3044496,59.6987952 L57.3044496,66.6385542 L60.1498829,66.6385542 L60.1498829,59.4819277 C60.1850117,58.939759 60.2903981,58.4337349 60.501171,57.9638554 C60.7119438,57.4216867 61.028103,56.9518072 61.4145199,56.5542169 C61.8009368,56.1566265 62.2576112,55.8674699 62.7845433,55.6144578 C63.8384075,55.1445783 65.0679157,55.1445783 66.1217799,55.6144578 C66.5433255,55.8313253 67,56.1566265 67.3864169,56.5542169 Z M96.0515222,57.0240964 C95.735363,56.1204819 95.2435597,55.3253012 94.64637,54.6385542 C94.0491803,53.9518072 93.2763466,53.4096386 92.4332553,52.9759036 C91.5901639,52.5783133 90.5714286,52.3614458 89.4824356,52.3614458 C88.498829,52.3614458 87.5854801,52.5421687 86.70726,52.939759 C85.8641686,53.3373494 85.0913349,53.8795181 84.4590164,54.4939759 C83.8266979,55.1445783 83.2997658,55.939759 82.9133489,56.8072289 C82.5620609,57.6746988 82.3864169,58.6506024 82.3864169,59.6626506 C82.3864169,60.6746988 82.5620609,61.6506024 82.9133489,62.5180723 C83.2997658,63.4216867 83.8266979,64.1807229 84.4590164,64.8313253 C85.0913349,65.4819277 85.8641686,65.9879518 86.70726,66.3855422 C87.5854801,66.7831325 88.498829,66.9638554 89.4824356,66.9638554 C90.2201405,66.9638554 90.9578454,66.8554217 91.6955504,66.6746988 C92.3981265,66.4578313 93.1007026,66.1325301 93.6978923,65.6987952 C94.3302108,65.2650602 94.8922717,64.6506024 95.3489461,63.9638554 C95.8056206,63.2771084 96.1920375,62.4819277 96.4730679,61.5060241 L93.381733,61.5060241 C93.0655738,62.2650602 92.5737705,62.8795181 91.941452,63.3493976 C91.2740047,63.8192771 90.4660422,64.0722892 89.4824356,64.0722892 C88.9203747,64.0722892 88.3934426,63.9638554 87.8665105,63.746988 C87.3747073,63.5301205 86.9180328,63.2409639 86.5316159,62.8433735 C86.1451991,62.4819277 85.8290398,62.0120482 85.5831382,61.5060241 C85.3372365,61 85.1967213,60.4578313 85.1967213,59.8795181 L85.1967213,59.7349398 L96.6135831,59.7349398 C96.5784543,58.7951807 96.4028103,57.8915663 96.0515222,57.0240964 Z M85.7236534,57.2409639 L85.8290398,57.060241 C86.5316159,55.9036145 87.7611241,55.2891566 89.5175644,55.2168675 C91.2388759,55.2168675 92.4332553,55.8674699 93.1358314,57.060241 L93.2412178,57.2409639 L85.7236534,57.2409639 Z" id="Shape" fill="#FFFFFF" fill-rule="nonzero"></path>
                <path d="M168.718006,37.6414141 C168.259767,37.6414141 167.872025,37.6060606 167.625281,37.5 C167.378536,37.4292929 167.20229,37.3232323 167.061293,37.1464646 C166.920296,36.969697 166.849798,36.7575758 166.814549,36.4747475 C166.7793,36.1565657 166.74405,35.8030303 166.74405,35.4494949 L166.74405,30.9949495 L168.788505,30.9949495 L168.788505,27.9545455 L166.74405,27.9545455 L166.74405,21.1313131 L163.571621,21.1313131 L163.571621,27.989899 L161.914908,27.989899 L161.914908,31.030303 L163.571621,31.030303 L163.571621,36.0858586 C163.571621,36.8282828 163.677369,37.4646465 163.818366,38.030303 C163.994612,38.6313131 164.241356,39.0909091 164.629097,39.5151515 C165.016839,39.9040404 165.475079,40.2222222 166.109564,40.4343434 C166.708801,40.6464646 167.413785,40.7525253 168.259767,40.7525253 L169,40.7525253 L169,37.6414141 L168.718006,37.6414141 Z M94.5184104,28.3080808 C93.8486753,27.6363636 93.0731926,27.1060606 92.1919623,26.7171717 C91.3107319,26.3282828 90.3590031,26.1515152 89.3367759,26.1515152 C88.3145487,26.1515152 87.3628199,26.3282828 86.4815896,26.7171717 C85.6003592,27.1060606 84.8248765,27.6363636 84.1551414,28.3080808 C83.4854064,28.9444444 82.9566682,29.7575758 82.5689268,30.6414141 C82.1811855,31.5252525 81.9696902,32.479798 81.9696902,33.5050505 C81.9696902,34.530303 82.1811855,35.4848485 82.5689268,36.3333333 C83.3327735,38.0896835 84.7304221,39.4914684 86.4815896,40.2575758 C87.3628199,40.6464646 88.3145487,40.8232323 89.3367759,40.8232323 C90.3590031,40.8232323 91.3107319,40.6464646 92.1919623,40.2575758 C93.0731926,39.8686869 93.8839246,39.3383838 94.5184104,38.6666667 C95.1881455,37.9949495 95.7168837,37.2171717 96.1046251,36.3333333 C96.4923664,35.4494949 96.6686125,34.4949495 96.6686125,33.5050505 C96.6686125,32.479798 96.4571172,31.5252525 96.1046251,30.6414141 C95.6816345,29.7575758 95.1528963,28.9444444 94.5184104,28.3080808 Z M89.3367759,37.4646465 C88.7727885,37.4646465 88.2440503,37.3585859 87.7858105,37.1464646 C87.3275707,36.9343434 86.8693309,36.6515152 86.5168388,36.2979798 C86.1643467,35.9444444 85.8823529,35.520202 85.6708577,35.0252525 C85.4593624,34.530303 85.3536147,34 85.3536147,33.469697 C85.3536147,32.9393939 85.4593624,32.4090909 85.6708577,31.9141414 C85.8823529,31.4191919 86.1643467,30.9949495 86.5168388,30.6414141 C86.9045802,30.2878788 87.2923215,30.0050505 87.7858105,29.7929293 C88.2440503,29.5808081 88.7727885,29.4747475 89.3367759,29.4747475 C89.9007634,29.4747475 90.3942524,29.5808081 90.8877414,29.7929293 C91.3812304,30.0050505 91.8042209,30.2878788 92.1567131,30.6414141 C92.5444544,30.9949495 92.8264481,31.4191919 93.0026942,31.9141414 C93.2141895,32.4090909 93.3199371,32.9393939 93.3199371,33.469697 C93.3199371,34.0353535 93.2141895,34.530303 93.0026942,35.0252525 C92.7911989,35.520202 92.5092052,35.9444444 92.1567131,36.2979798 C91.8042209,36.6868687 91.3812304,36.9343434 90.8877414,37.1464646 C90.3942524,37.3939394 89.8655141,37.4646465 89.3367759,37.4646465 Z M68.2224966,27.7777778 C68.0110013,27.5656566 67.7290076,27.3888889 67.4117647,27.2121212 C67.0945218,27.0353535 66.7420296,26.8585859 66.3895375,26.7171717 C66.0017961,26.5757576 65.6140548,26.4343434 65.2615626,26.3636364 C64.8738213,26.2575758 64.4860799,26.2222222 64.0630894,26.2222222 C63.0408621,26.2222222 62.0891334,26.3989899 61.207903,26.7878788 C60.3266727,27.1767677 59.5511899,27.7070707 58.9167041,28.3434343 C58.2822182,28.979798 57.75348,29.7575758 57.3657387,30.6414141 C56.9779973,31.5252525 56.8017512,32.479798 56.8017512,33.469697 C56.8017512,34.4949495 56.9779973,35.4494949 57.3657387,36.3333333 C57.75348,37.2171717 58.2822182,37.9949495 58.9167041,38.6313131 C59.5511899,39.2676768 60.3266727,39.7979798 61.207903,40.1868687 C62.0891334,40.5757576 63.0408621,40.7525253 64.0630894,40.7525253 C65.0853166,40.7525253 66.0370454,40.5757576 66.9182757,40.1868687 C67.7995061,39.7979798 68.5749888,39.3030303 69.2094746,38.6666667 C69.8792097,37.9949495 70.4079479,37.2171717 70.7604401,36.3333333 C71.1481814,35.4494949 71.3244275,34.4949495 71.3244275,33.4343434 L71.3244275,20 L68.1872474,20 L68.1872474,27.7777778 L68.2224966,27.7777778 Z M62.4768747,37.3585859 C61.9481365,37.1464646 61.5251459,36.8282828 61.1726538,36.4747475 C60.7849124,36.0858586 60.5029187,35.6616162 60.2561742,35.1313131 C60.0446789,34.6363636 59.9389313,34.0707071 59.9389313,33.5050505 C59.9389313,32.9393939 60.0446789,32.4090909 60.2561742,31.9141414 C60.5029187,31.3838384 60.7849124,30.959596 61.1726538,30.5707071 C61.5603952,30.1818182 61.9833857,29.8989899 62.5121239,29.6868687 C63.0056129,29.4747475 63.5696004,29.3686869 64.0983386,29.3686869 C64.662326,29.3686869 65.2263134,29.4747475 65.7198024,29.6868687 C66.2132914,29.8989899 66.636282,30.2171717 67.0240233,30.5707071 C67.4117647,30.959596 67.6937584,31.3838384 67.9405029,31.9141414 C68.1519982,32.4090909 68.2577458,32.9747475 68.2577458,33.5050505 C68.2577458,34.0707071 68.1519982,34.6363636 67.9405029,35.1313131 C67.7290076,35.6262626 67.4117647,36.0505051 67.0240233,36.4747475 C66.636282,36.8636364 66.2132914,37.1464646 65.6845532,37.3585859 C64.6975752,37.8181818 63.4638527,37.8181818 62.4768747,37.3585859 Z M146.616749,30.6060606 C146.440503,30.2171717 146.229008,29.7575758 145.947014,29.3333333 C145.700269,28.9444444 145.418276,28.5909091 145.065784,28.2727273 C144.960036,28.1666667 144.889537,28.0959596 144.78379,28.0252525 L144.642793,27.8838384 C144.607544,27.8484848 144.572295,27.8484848 144.572295,27.8131313 C144.501796,27.7424242 144.431298,27.7070707 144.360799,27.6363636 L144.290301,27.5656566 C144.255052,27.5656566 144.219802,27.530303 144.149304,27.4949495 L144.114055,27.459596 C144.078806,27.4242424 144.043556,27.3888889 144.008307,27.3888889 C143.973058,27.3535354 143.937809,27.3181818 143.86731,27.2828283 C143.832061,27.2828283 143.832061,27.2474747 143.796812,27.2121212 C143.655815,27.1414141 143.550067,27.0353535 143.373821,26.9646465 L143.303323,26.9292929 C143.127077,26.8585859 142.950831,26.7525253 142.774585,26.6818182 C141.893354,26.2929293 140.941626,26.1161616 139.884149,26.1161616 C138.861922,26.1161616 137.910193,26.2929293 137.028963,26.6818182 C136.887966,26.7525253 136.746969,26.8232323 136.605972,26.8585859 L136.394477,26.9646465 C136.25348,27.0353535 136.147732,27.1414141 136.006736,27.2121212 L135.936237,27.2474747 C135.865739,27.2828283 135.830489,27.3181818 135.79524,27.3535354 C135.724742,27.3888889 135.654243,27.4242424 135.618994,27.4949495 L135.442748,27.6010101 C135.37225,27.6717172 135.301751,27.7070707 135.231253,27.7777778 C135.196004,27.7777778 135.196004,27.8131313 135.160754,27.8484848 L135.090256,27.9191919 C134.984508,28.0252525 134.843511,28.1313131 134.737764,28.2373737 C134.526269,28.4494949 134.314773,28.6969697 134.068029,29.0151515 L134.03278,29.0858586 C134.03278,29.1212121 133.99753,29.1565657 133.962281,29.1919192 C133.927032,29.2272727 133.891783,29.2979798 133.856533,29.3333333 C133.715537,29.510101 133.609789,29.7222222 133.468792,30.0050505 L133.433543,30.040404 C133.327795,30.2525253 133.222048,30.4292929 133.151549,30.6414141 L133.151549,30.7121212 C133.151549,30.7121212 133.1163,30.7474747 133.1163,30.7828283 C133.045802,30.9242424 133.010552,31.030303 132.975303,31.1717172 L132.940054,31.2424242 C132.904805,31.3131313 132.904805,31.3484848 132.869555,31.3838384 C132.869555,31.4545455 132.834306,31.489899 132.834306,31.5606061 C132.799057,31.6313131 132.799057,31.7020202 132.763808,31.7727273 C132.693309,32.0909091 132.622811,32.4090909 132.587562,32.7272727 L132.552313,32.8686869 L132.587562,32.8686869 L132.587562,34.3888889 C132.65806,35.0959596 132.834306,35.7676768 133.081051,36.3686869 C133.468792,37.2525253 133.99753,38.030303 134.667265,38.7020202 C134.949259,38.9848485 135.231253,39.2323232 135.477997,39.4090909 C135.971486,39.7626263 136.464975,40.0808081 136.958464,40.2929293 C137.839695,40.6818182 138.791423,40.8585859 139.813651,40.8585859 C140.236641,40.8585859 140.624383,40.7878788 141.012124,40.7171717 C141.399865,40.6111111 141.822856,40.5050505 142.210597,40.3282828 C142.598339,40.1515152 142.950831,39.9393939 143.268074,39.6919192 C143.479569,39.5505051 143.655815,39.3737374 143.832061,39.1969697 L143.832061,40.540404 L147.110238,40.540404 L147.110238,32.6919192 C147.074989,31.9848485 146.898743,31.2777778 146.616749,30.6060606 Z M143.902559,33.5050505 C143.902559,34.1767677 143.796812,34.7424242 143.585317,35.2373737 C143.373821,35.7323232 143.056578,36.1565657 142.704086,36.4747475 C142.316345,36.8282828 141.893354,37.0757576 141.435115,37.2171717 C140.941626,37.3585859 140.412887,37.4646465 139.884149,37.4646465 C139.320162,37.4646465 138.826673,37.3585859 138.333184,37.1464646 C137.874944,36.9343434 137.416704,36.6515152 137.064212,36.2979798 C136.71172,35.9444444 136.429726,35.520202 136.218231,35.0252525 C136.006736,34.5656566 135.900988,34.0353535 135.900988,33.469697 C135.900988,32.9040404 136.006736,32.3737374 136.218231,31.9141414 C136.464975,31.3838384 136.71172,30.9949495 137.064212,30.6414141 C137.416704,30.2878788 137.839695,29.969697 138.333184,29.7929293 C138.826673,29.5808081 139.320162,29.4747475 139.884149,29.4747475 C140.448137,29.4747475 140.941626,29.5808081 141.435115,29.7222222 C141.928604,29.8989899 142.351594,30.1464646 142.704086,30.5 C143.056578,30.8181818 143.338572,31.2424242 143.550067,31.7373737 C143.796812,32.2676768 143.902559,32.8686869 143.902559,33.5050505 Z M12,26.8232323 L15.1724293,26.8232323 L15.1724293,40.8232323 L12,40.8232323 L12,26.8232323 Z M119.122362,33.7171717 C118.699371,33.3636364 118.170633,33.0454545 117.536147,32.7626263 C116.936911,32.479798 116.267176,32.2323232 115.562191,31.9848485 C115.244948,31.8434343 114.927705,31.7727273 114.645712,31.6666667 L114.328469,31.5606061 C113.975977,31.4545455 113.693983,31.3484848 113.447238,31.2424242 C113.235743,31.1363636 113.059497,31.030303 112.953749,30.8535354 C112.848002,30.7121212 112.777503,30.5707071 112.777503,30.3585859 L112.777503,30.2878788 C112.777503,30.1818182 112.812753,30.1111111 112.848002,30.0050505 C112.883251,29.9343434 112.953749,29.8282828 113.059497,29.7929293 C113.200494,29.7222222 113.37674,29.6515152 113.588235,29.6161616 C113.83498,29.5454545 114.152223,29.5454545 114.539964,29.5454545 C115.280198,29.5454545 115.914683,29.6161616 116.51392,29.7575758 C117.077907,29.8989899 117.712393,30.1464646 118.346879,30.4646465 L118.487876,30.5353535 L119.933094,27.7070707 L119.792097,27.6363636 C118.946116,27.2121212 118.064885,26.9292929 117.148406,26.7171717 C116.231926,26.5050505 115.421194,26.3989899 114.680961,26.3989899 L114.645712,26.3989899 C113.940727,26.3989899 113.270992,26.5050505 112.601257,26.6818182 C111.931522,26.8585859 111.332286,27.1414141 110.838797,27.4949495 C110.310058,27.8484848 109.887068,28.2727273 109.569825,28.8030303 C109.252582,29.2979798 109.076336,29.8989899 109.076336,30.5 L109.076336,30.5707071 C109.076336,31.2424242 109.217333,31.8080808 109.499326,32.2676768 C109.78132,32.7272727 110.133812,33.1515152 110.592052,33.469697 C111.050292,33.7878788 111.57903,34.0707071 112.213516,34.3181818 C112.812753,34.530303 113.482488,34.7424242 114.187472,34.9545455 C115.068702,35.2020202 115.773687,35.4848485 116.302425,35.7676768 C116.760665,36.0505051 117.007409,36.3686869 117.007409,36.8282828 L117.007409,36.8989899 C117.007409,37.1818182 116.866412,37.4292929 116.51392,37.5707071 C116.126179,37.7474747 115.597441,37.8181818 114.962955,37.8181818 C114.539964,37.8181818 114.116974,37.7828283 113.729232,37.7474747 C113.37674,37.7121212 113.059497,37.6414141 112.707005,37.5353535 C112.354513,37.4292929 112.03727,37.2878788 111.720027,37.1464646 C111.402784,37.0050505 111.050292,36.7929293 110.662551,36.5808081 L110.556803,36.510101 L108.688595,39.2323232 L108.794342,39.3030303 C109.252582,39.5858586 109.746071,39.8333333 110.274809,40.0454545 C110.803547,40.2575758 111.332286,40.4343434 111.861024,40.5757576 C112.389762,40.7171717 112.9185,40.8232323 113.447238,40.8939394 C113.975977,40.9646465 114.434216,41 114.857207,41 C115.562191,41 116.267176,40.8939394 116.936911,40.7171717 C117.606646,40.540404 118.241132,40.2575758 118.76987,39.8686869 C119.333857,39.479798 119.756848,39.0555556 120.10934,38.489899 C120.461832,37.959596 120.638078,37.3232323 120.638078,36.6515152 L120.638078,36.5808081 C120.638078,35.9444444 120.497081,35.3787879 120.285586,34.8838384 C119.897845,34.4949495 119.545352,34.0707071 119.122362,33.7171717 Z M46.1564885,40.8585859 L43.0193085,40.8585859 L43.0193085,33.6818182 C42.9840593,33.1868687 42.8783116,32.6919192 42.7020656,32.2676768 C42.4905703,31.7727273 42.1733273,31.3131313 41.8208352,30.959596 C41.4330938,30.5707071 41.0101033,30.2878788 40.5166143,30.040404 C40.0231253,29.8282828 39.4943871,29.7222222 38.8951504,29.7222222 C38.331163,29.7222222 37.8024248,29.8282828 37.3089358,30.040404 C36.8154468,30.2525253 36.357207,30.5707071 36.0047149,30.959596 C35.6169735,31.3484848 35.3349798,31.7727273 35.1234845,32.2676768 C34.9119892,32.7272727 34.8062416,33.2222222 34.7709924,33.6818182 L34.7709924,40.8585859 L31.6338123,40.8585859 L31.6338123,33.1515152 C31.7395599,32.4090909 31.8805568,31.7020202 32.1977997,31.030303 C32.3740458,30.6060606 32.6207903,30.1818182 32.8675348,29.7575758 C33.1142793,29.3686869 33.4315222,29.0151515 33.7487652,28.6969697 L34.0307589,28.4141414 L34.1012573,28.3434343 L34.2070049,28.2373737 L34.3480018,28.0959596 C34.4185002,28.0606061 34.4537494,28.0252525 34.5242479,27.989899 C34.5947463,27.9191919 34.7004939,27.8484848 34.7709924,27.7777778 C34.8414908,27.7424242 34.9119892,27.7070707 34.9824877,27.6363636 L35.0529861,27.6010101 C35.1587337,27.530303 35.2644814,27.459596 35.4054782,27.4242424 L35.4407274,27.3888889 C35.6522227,27.2828283 35.8284688,27.1767677 36.0047149,27.1060606 C36.8859452,26.7171717 37.837674,26.540404 38.8599012,26.540404 L38.8951504,26.540404 C39.9173776,26.540404 40.8691064,26.7171717 41.7503368,27.1060606 C41.9618321,27.1767677 42.1380781,27.2828283 42.279075,27.3888889 C42.279075,27.3888889 42.3143242,27.3888889 42.3143242,27.4242424 C42.4553211,27.4949495 42.5610687,27.5656566 42.6668163,27.6363636 L42.7373148,27.6717172 C42.8078132,27.7070707 42.8783116,27.7424242 42.9488101,27.8131313 L42.9840593,27.8484848 C43.0545577,27.9191919 43.1603053,27.9545455 43.2308038,28.0252525 C43.266053,28.0606061 43.3365514,28.0959596 43.3718006,28.1313131 C43.4422991,28.1666667 43.4775483,28.2020202 43.5480467,28.2373737 L43.6890436,28.3434343 C43.7947912,28.4494949 43.9357881,28.5555556 44.0767849,28.6969697 C44.4292771,29.0151515 44.7112708,29.3686869 44.9932645,29.7575758 C45.240009,30.1464646 45.4867535,30.5707071 45.6629996,31.030303 C45.9449933,31.6666667 46.1212393,32.3737374 46.1917378,33.1161616 L46.1917378,33.2575758 L46.1564885,40.8585859 Z" id="Shape" fill="#231F20" fill-rule="nonzero"></path>
            </g>
        </g>
    </g>
</svg>