<?xml version="1.0" encoding="UTF-8"?>
<svg width="300px" height="104px" viewBox="0 0 300 104" version="1.1" xmlns="http://www.w3.org/2000/svg" xmlns:xlink="http://www.w3.org/1999/xlink">
    <!-- Generator: Sketch 52.2 (67145) - http://www.bohemiancoding.com/sketch -->
    <title>telkomsel</title>
    <desc>Created with Sketch.</desc>
    <g id="Page-1" stroke="none" stroke-width="1" fill="none" fill-rule="evenodd">
        <g id="telkomsel">
            <g transform="translate(6.000000, 6.000000)">
                <polygon id="Path" fill="#6D6E71" points="62.33 18.78 77.61 39.06 67.69 62.42 42.49 65.52 27.21 45.24 37.13 21.87 62.33 18.78"></polygon>
                <polygon id="Path" fill="#ED1C24" points="55.3 16.44 70.58 36.71 60.66 60.08 35.46 63.18 20.18 42.9 30.1 19.53 55.3 16.44"></polygon>
                <path d="M67.2,23.9 C65.47,11.21 60.63,2.21 53.79,1.11 C42.95,-0.64 31.1,18.15 27.41,42.9 C23.72,67.65 29.57,89.32 40.41,91.07 C48.98,92.49 58.18,81.04 63.48,63.9 C58.2,75.58 49.82,81.05 43.79,79.5 C39.36,78.36 36.38,72.18 35.49,63.38 C34.8368622,55.7287595 35.31194,48.0230644 36.9,40.51 C40.9,21.03 50.41,6.7 58.14,8.77 C63.02,10.07 66.3,20.15 67.2,23.88 L67.2,23.9 Z" id="Path" fill="#AFB1B4"></path>
                <path d="M44.15,25.43 C14.15,28.63 -1.25,41.43 0.08,50.76 C1.41,60.09 13.17,64.2 26.23,65.76 C20.58,64.22 6.07,59.61 9.09,52.12 C11.89,45.19 27.32,38.12 45.91,35.99 C67.91,33.45 85.96,39.13 86.91,47.2 C87.64,53.46 77.31,58.77 69.28,62.05 C84.21,57.44 96.21,50.05 94.82,40.29 C93.43,30.53 76.7,21.97 44.15,25.43 Z" id="Path" fill="#AFB1B4"></path>
                <path d="M44.15,25.43 C43.15,25.53 42.25,25.65 41.33,25.77 C42.471399,22.9553514 43.842702,20.2395025 45.43,17.65 L34.21,19.02 C32.948169,21.8275455 31.8496704,24.7056786 30.92,27.64 C29.26,28.02 27.66,28.45 26.13,28.9 L20.18,42.9 C22.6867249,41.7114748 25.2689752,40.6892644 27.91,39.84 C27.74,40.9 27.58,41.9 27.41,42.9 C26.99,45.73 26.69,48.53 26.52,51.26 L35.46,63.13 C34.8437283,55.5604892 35.3253798,47.9416383 36.89,40.51 C37.12,39.41 37.36,38.32 37.62,37.26 C40.28,36.72 43.05,36.26 45.9,35.95 C54.116485,34.9258861 62.442097,35.1822664 70.58,36.71 L61.58,24.71 C55.7734823,24.5582038 49.9633678,24.8021016 44.19,25.44 L44.15,25.43 Z" id="Path" fill="#FFFFFF"></path>
                <path d="M104.88,36.72 L97.64,36.72 L98.64,31.55 L117.93,31.55 L117.1,36.72 L109.85,36.72 L105.7,60.63 L100.7,60.63 L104.85,36.72 L104.88,36.72 Z M114.58,60.63 L119.58,31.55 L137.16,31.55 L136.33,36.72 L123.67,36.72 L122.58,42.83 L134.3,42.83 L133.39,47.99 L121.71,47.99 L120.41,55.47 L133.65,55.47 L132.65,60.63 L114.58,60.63 Z M135.43,60.63 L140.5,31.55 L145.5,31.55 L141.31,55.47 L153.18,55.47 L152.18,60.63 L135.43,60.63 Z M159.86,31.55 L164.81,31.55 L162.71,43.64 L173.97,31.55 L180.53,31.55 L168.58,43.64 L175.86,60.64 L169.44,60.64 L164.35,47.9 L161.42,50.9 L159.72,60.64 L154.72,60.64 L159.79,31.56 L159.86,31.55 Z M187.4,61.42 C184.828023,61.5679434 182.325187,60.5550655 180.58,58.66 C178.833736,56.5831489 177.943463,53.9194785 178.09,51.21 L178.09,51.14 C178.09,45.14 179.453333,40.25 182.18,36.47 C184.906667,32.69 188.396667,30.7866667 192.65,30.76 C195.193208,30.6390469 197.658779,31.6538508 199.38,33.53 C201.117528,35.6229489 202.002974,38.2935693 201.86,41.01 L201.86,41.08 C201.86,47.08 200.5,51.9633333 197.78,55.73 C195.06,59.4966667 191.576667,61.3933333 187.33,61.42 L187.4,61.42 Z M188.29,56.24 C190.723333,56.24 192.75,54.93 194.37,52.31 C196.083913,49.3252881 196.925832,45.9195015 196.8,42.48 C196.896128,40.7742001 196.428804,39.0841037 195.47,37.67 C194.610016,36.5315621 193.245424,35.8885219 191.82,35.95 C189.39,35.95 187.36,37.26 185.75,39.87 C184.033636,42.8646578 183.191743,46.2807347 183.32,49.73 C183.207712,51.4212239 183.65008,53.1029268 184.58,54.52 C185.445369,55.6572971 186.81215,56.2996096 188.24,56.24 L188.29,56.24 Z M206.18,60.63 L201.47,60.63 L206.54,31.55 L213.82,31.55 L214.07,54.9 L222.28,31.58 L229.58,31.58 L224.51,60.66 L219.78,60.66 L224.05,36.15 L215.4,60.66 L210.5,60.66 L210.4,36.13 L206.13,60.66 L206.18,60.63 Z M244.45,40.27 C244.57295,39.078726 244.264233,37.8828913 243.58,36.9 C242.832658,36.1159221 241.768993,35.7147474 240.69,35.81 C239.51576,35.768365 238.361284,36.1203394 237.41,36.81 C236.543379,37.4742191 235.969494,38.4498236 235.81,39.53 C235.596403,40.2838365 235.842661,41.0929702 236.44,41.6 C237.572941,42.3144848 238.826846,42.816047 240.14,43.08 C243.55,44.02 245.82,45.14 246.93,46.43 C247.817756,47.4663471 248.266212,48.8081288 248.18,50.17 C248.118755,53.5297688 246.671062,56.7146936 244.18,58.97 C242.051797,60.6706246 239.382098,61.5475071 236.66,61.44 C233.52,61.44 231.233333,60.6166667 229.8,58.97 C228.610433,57.4220751 228.014462,55.4993594 228.12,53.55 L228.23,51.63 L233.15,51.63 C232.89533,52.8891392 233.186016,54.1972283 233.95,55.23 C234.884149,56.1098938 236.152678,56.5436722 237.43,56.42 C238.7207,56.4712285 239.995645,56.1219284 241.08,55.42 C242.011759,54.8026347 242.642707,53.8235766 242.82,52.72 C243.069435,51.8209038 242.763324,50.8594013 242.04,50.27 C240.660789,49.4365354 239.154078,48.8352021 237.58,48.49 C234.58,47.67 232.58,46.64 231.58,45.4 C230.856874,44.3817068 230.503992,43.1466171 230.58,41.9 C230.58722,41.1989192 230.654129,40.4997266 230.78,39.81 C231.138803,37.2311635 232.412995,34.8673431 234.37,33.15 C236.37908,31.5085771 238.917372,30.6553697 241.51,30.75 C244.45,30.75 246.58,31.57 247.92,33.2 C249.036567,34.6540844 249.596909,36.4592375 249.5,38.29 C249.5,38.91 249.43,39.56 249.35,40.29 L244.45,40.27 Z M248.91,60.63 L253.97,31.55 L271.55,31.55 L270.72,36.72 L258,36.72 L256.94,42.83 L268.66,42.83 L267.75,47.99 L256.04,47.99 L254.74,55.47 L267.99,55.47 L266.99,60.63 L248.91,60.63 Z M269.76,60.63 L274.83,31.55 L279.83,31.55 L275.58,55.47 L287.45,55.47 L286.45,60.63 L269.76,60.63 Z" id="Shape" fill="#231F20"></path>
            </g>
        </g>
    </g>
</svg>