<?xml version="1.0" encoding="UTF-8"?>
<svg width="300px" height="104px" viewBox="0 0 300 104" version="1.1" xmlns="http://www.w3.org/2000/svg" xmlns:xlink="http://www.w3.org/1999/xlink">
    <!-- Generator: Sketch 52.2 (67145) - http://www.bohemiancoding.com/sketch -->
    <title>three</title>
    <desc>Created with Sketch.</desc>
    <defs>
        <polygon id="path-1" points="5.2641835e-16 0 63 0 63 81 5.2641835e-16 81"></polygon>
    </defs>
    <g id="Page-1" stroke="none" stroke-width="1" fill="none" fill-rule="evenodd">
        <g id="three">
            <g id="3" transform="translate(119.000000, 11.000000)">
                <mask id="mask-2" fill="white">
                    <use xlink:href="#path-1"></use>
                </mask>
                <g id="Clip-2"></g>
                <path d="M50.7445079,72.0308855 C45.1310495,76.2807823 37.676423,78.7184178 30.2916323,78.7184178 C11.8963695,78.7184178 2.27151399,68.4103107 2.27151399,58.2276035 C2.27151399,52.1772887 6.76621189,45.8722262 14.2675498,45.8722262 C18.6986555,45.8722262 25.6031515,48.061384 24.7406098,56.7218753 C24.6122692,55.8445402 23.4724654,52.7587728 20.1164151,52.7587728 C18.2484226,52.7587728 16.6704106,54.3053721 16.6704106,56.1355145 C16.6704106,56.8835019 16.4946649,57.0918051 16.3573057,57.0918051 C15.1122857,57.0918051 13.5666479,55.2581794 13.884609,52.1877387 C9.06547521,57.5878316 12.5017674,61.4127619 14.1812956,62.9765456 C14.5579928,63.3276654 15.1280103,63.8582929 15.1333289,64.0484828 C15.1333289,64.5758592 13.7537247,65.4466921 10.2850583,65.1273867 C16.3263189,72.3552998 23.3614681,70.403473 27.0912094,69.3540613 C28.0171121,69.0935081 29.131479,68.6107183 29.4205345,69.0461348 C29.9119289,69.7137734 28.5961481,72.8195118 26.8190347,74.4452988 C36.9937894,73.1100217 40.3348089,67.2429301 42.0224307,64.1775983 C42.590367,63.1462999 43.0808364,62.2552637 43.4857454,62.2552637 C44.5478511,62.2552637 45.4890159,66.6043193 44.7790955,69.9459955 C51.5235704,63.6372175 49.5815797,56.8630664 48.6006409,53.8323356 C48.3608404,53.0917793 48.1536454,52.4520074 48.1536454,52.0816132 C48.1536454,51.5219579 48.3300849,51.3647435 48.7169568,51.2662813 C50.4059661,51.2662813 52.3715437,51.8714522 54.7226058,52.9937816 C48.4790063,38.3250077 26.8962704,40.3376767 21.6488719,37.0891217 C25.6161012,36.8766385 30.6505236,33.9513366 35.0860229,31.0864124 C36.6517789,30.0699763 37.8671996,29.0567912 38.8442073,28.2428527 C39.8686201,27.3887398 40.7535925,26.6512024 41.2264874,26.6512024 C42.5371808,26.6512024 42.7212514,30.5188616 42.0462489,32.8912426 C45.3289947,30.7652493 46.87602,27.5691764 46.87602,24.5714212 C46.87602,21.5887604 45.2360345,19.7312158 44.1510356,18.5020642 C43.8159625,18.1228455 43.3578673,17.6035969 43.3393677,17.419677 C43.3405239,17.2527093 43.4667834,17.0520694 43.7098213,16.8723294 C44.8380628,16.0384199 47.0469096,15.7300289 49.3477916,16.253922 C44.2858511,9.7226752 37.9955403,11.5797554 34.544911,12.7127671 C33.4999174,13.0557591 31.9524297,13.5424966 31.9524297,13.1112602 C31.9524297,11.8788575 33.5785405,9.35251316 36.4623897,7.59644958 C30.5719005,7.19586645 22.4788081,11.6405976 16.6519111,14.7695583 C11.8905884,17.3260914 7.40560272,19.7268036 4.82491494,19.7268036 C3.23164084,19.7268036 2.67896667,19.1499639 2.67896667,18.5603519 C2.67896667,14.1272319 18.313171,2.28111776 34.8284166,2.28111776 C41.0882032,2.28111776 46.2033299,3.83259366 49.6208913,6.76741666 C52.5863698,9.31419651 54.2196492,12.9094592 54.2196492,16.8913717 C54.2196492,23.0046186 51.3397311,27.2217721 49.6188101,29.7416142 C48.7345314,31.0364847 48.2475306,31.7496388 48.2475306,32.5073795 C48.2475306,33.6921767 49.3466354,34.5061152 51.167454,35.8543967 C54.7431865,38.5045154 60.7282548,42.9364744 60.7282548,52.0212354 C60.7282548,62.3116937 55.2993294,68.5823872 50.7445079,72.0308855 Z M25.9317499,58.6820621 C29.8635988,58.8926876 33.0839087,57.8302714 35.5267748,55.5870059 C37.9173797,53.3918103 39.2884279,50.1130664 39.2884279,46.5911859 C39.2884279,44.5954691 38.5845198,43.1679998 37.0324073,41.9244504 C42.8519045,43.124342 49.0959664,46.111415 52.309339,50.7909227 C50.6372105,50.2071163 49.5979981,50.0496697 48.5069869,50.0496697 C47.6696508,50.0496697 46.9282812,50.9725204 46.9282812,52.0816132 C46.9282812,52.6468418 47.1518946,53.338167 47.435169,54.2129477 C48.3122791,56.922283 49.7212514,61.2801631 46.0687457,66.7717515 C46.1395065,64.5027093 45.5627829,62.6844102 44.8394503,61.7824595 C44.3369562,61.1561565 43.825906,61.0247188 43.4857454,61.0247188 C42.3581976,61.0247188 41.7673681,62.0973527 40.9499191,63.582413 C39.4720359,66.2657395 37.0647815,70.632444 29.4704833,72.7658685 C30.5547884,71.1026938 30.9245482,69.3152802 30.531664,68.3480751 C30.3371874,67.8699298 29.9429157,67.5842966 29.4769581,67.5842966 C29.4679396,67.5842966 29.4591523,67.5845288 29.4499025,67.5847611 C28.7221763,67.6172722 27.8129233,67.8729487 26.7607611,68.1692641 C23.334875,69.1329859 18.2872716,70.5490763 13.0666975,66.3330839 C14.1294969,66.2478584 15.046381,65.9236763 15.6665786,65.3867788 C16.1131116,65.0003612 16.3586931,64.5250026 16.3586931,64.0482506 C16.3586931,63.3265043 15.7657824,62.7738157 15.0147005,62.0745949 C13.5252552,60.6875323 11.5608338,58.8543709 13.1339896,55.0387295 C13.3451158,55.869388 13.7266691,56.6173754 14.2633874,57.2155795 C14.8939909,57.9189803 15.6573288,58.3221179 16.3573057,58.3221179 C17.8957748,58.3221179 17.8957748,57.0063474 17.8957748,56.1355145 C17.8957748,54.9925173 18.9335998,53.9893178 20.1164151,53.9893178 C23.4724654,53.9893178 24.7406098,58.9632831 23.6246242,61.6633295 C24.7406098,60.7973733 25.6031515,59.5236351 25.9317499,58.6820621 Z M20.3946021,35.5186036 L20.3744838,35.5186036 C20.4177265,34.2578697 23.8413003,32.0617453 26.1123518,30.6052482 C29.4542962,28.4618382 32.0941826,26.7687068 32.0941826,24.7156311 C32.0941826,23.8824182 31.7743715,23.122123 31.1696673,22.5169522 C28.900697,20.2474456 22.5252882,20.2722933 15.7757259,20.2987666 C13.3189852,20.30852 10.7117043,20.3877077 8.22813914,20.1733667 C10.7574907,19.3294716 13.8330415,17.6786046 17.2295596,15.8547322 C22.2036272,13.1839457 27.753031,10.2052327 32.9571867,9.01346888 C31.5768888,10.3986738 30.6697169,12.0716018 30.6697169,13.4324234 C30.6697169,13.9883631 31.0082587,14.5823872 31.9582108,14.5823872 C32.7930032,14.5823872 33.7811106,14.257973 34.9255393,13.8824698 C37.9465165,12.8906492 41.9701695,11.5727887 46.5041789,14.9126071 C44.95461,14.9054082 43.681147,15.3352513 42.9571207,15.9014088 C42.26015,16.4462019 42.1137723,17.0288471 42.1137723,17.4215347 C42.1137723,18.0496955 42.5834297,18.5819486 43.2339203,19.3185571 C44.2539394,20.4736299 45.6506557,22.0557591 45.6506557,24.5714212 C45.6506557,26.6546857 44.7767831,28.8243369 43.5188134,30.3648983 C43.7028839,29.0091857 43.4690958,27.0011611 42.6669089,26.0813293 C42.2902118,25.649164 41.7921113,25.4206574 41.2264874,25.4206574 C40.3114532,25.4206574 39.416306,26.1667871 38.0614449,27.295851 C37.1098741,28.0891217 35.9252089,29.0760656 34.4216577,30.0520952 C29.9669651,32.9297915 24.9108057,35.8722778 21.195864,35.8722778 C20.9731756,35.8722778 20.3946021,35.808649 20.3946021,35.5186036 Z M52.515609,34.0184488 C51.7811767,33.4745846 50.889267,32.8139127 50.5787057,32.4530395 C50.7438142,32.1290897 51.1510356,31.5315822 51.4923524,31.0318402 C53.2391728,28.4734493 56.4913944,23.7115027 56.4913944,16.8913717 C56.4913944,9.09915884 50.8180437,0 34.8284166,0 C27.2614053,0 18.6914869,2.51124987 11.3164084,6.88979771 C4.6894057,10.8243369 0.407452677,15.4053824 0.407452677,18.5603519 C0.407452677,19.3155382 0.698358165,20.0054701 1.24848865,20.5560687 C3.3204387,22.628651 9.09646196,22.5801166 15.7845132,22.5801166 C25.7250173,22.5801166 29.8226686,23.1246775 29.8226686,24.7156311 C29.8226686,26.6370368 18.1020449,31.3815667 18.1020449,35.5144236 C18.1020449,40.2988957 27.9368703,41.1892352 32.3913316,41.9904015 C36.5909616,42.74582 37.0166826,45.0269378 37.0166826,46.5911859 C37.0166826,49.5164878 35.943246,52.1134276 33.9938555,53.9033956 C32.1478313,55.598617 29.8642926,56.6707865 26.5163358,56.5179843 C27.5814476,48.825627 22.1534472,43.6375529 14.2552938,43.6375529 C5.3322652,43.6375529 0,51.0556559 0,58.2276035 C0,69.544019 10.4050742,81 30.2916323,81 C38.1594926,81 46.1126821,78.3947002 52.1120875,73.8522035 C57.0792177,70.0915987 63,63.2514965 63,52.0212354 C63,41.7841883 56.1796769,36.7314996 52.515609,34.0184488 Z" id="Fill-1" fill="#1A1919" mask="url(#mask-2)"></path>
            </g>
        </g>
    </g>
</svg>