<?xml version="1.0" encoding="UTF-8"?>
<svg width="300px" height="104px" viewBox="0 0 300 104" version="1.1" xmlns="http://www.w3.org/2000/svg" xmlns:xlink="http://www.w3.org/1999/xlink">
    <!-- Generator: Sketch 52.2 (67145) - http://www.bohemiancoding.com/sketch -->
    <title>xl</title>
    <desc>Created with Sketch.</desc>
    <defs>
        <polygon id="path-1" points="0.120436364 13.6367143 22.6240545 26.9691429 22.6240545 0.308142857"></polygon>
        <polygon id="path-3" points="0.120436364 26.9224286 22.6240545 13.5938571 0.120436364 0.288857143"></polygon>
        <polygon id="path-5" points="0.120436364 26.9995714 0.128381818 26.9995714 22.6240545 13.6834286 0.120436364 0.351"></polygon>
        <linearGradient x1="-0.256490439%" y1="50.0006325%" x2="98.4789376%" y2="50.0006325%" id="linearGradient-7">
            <stop stop-color="#D83260" offset="0%"></stop>
            <stop stop-color="#A52942" offset="100%"></stop>
        </linearGradient>
    </defs>
    <g id="Page-1" stroke="none" stroke-width="1" fill="none" fill-rule="evenodd">
        <g id="xl">
            <g id="Group-30" transform="translate(17.000000, 19.000000)">
                <polygon id="Fill-1" fill="#D94B7E" points="0 51.8581981 0 53.137022 22 66 22 39"></polygon>
                <polygon id="Fill-2" fill="#EEAB49" points="0 25 22 12.4938778 0 0"></polygon>
                <polygon id="Fill-3" fill="#E98B37" points="0 25.8507715 0 27.1253359 22 40 22 13"></polygon>
                <g id="Group-6" transform="translate(22.000000, 26.000000)">
                    <mask id="mask-2" fill="white">
                        <use xlink:href="#path-1"></use>
                    </mask>
                    <g id="Clip-5"></g>
                    <polygon id="Fill-4" mask="url(#mask-2)" points="0.120436364 13.6367143 22.6240545 26.9691429 22.6240545 0.308142857"></polygon>
                </g>
                <g id="Group-9" transform="translate(22.000000, 12.000000)">
                    <mask id="mask-4" fill="white">
                        <use xlink:href="#path-3"></use>
                    </mask>
                    <g id="Clip-8"></g>
                    <polygon id="Fill-7" mask="url(#mask-4)" points="0.120436364 26.9224286 22.6240545 13.5938571 0.120436364 0.288857143"></polygon>
                </g>
                <g id="Group-12" transform="translate(22.000000, 39.000000)">
                    <mask id="mask-6" fill="white">
                        <use xlink:href="#path-5"></use>
                    </mask>
                    <g id="Clip-11"></g>
                    <polygon id="Fill-10" fill="url(#linearGradient-7)" mask="url(#mask-6)" points="0.120436364 26.9995714 0.128381818 26.9995714 22.6240545 13.6834286 0.120436364 0.351"></polygon>
                </g>
                <g id="Group-29" transform="translate(58.000000, 16.000000)" fill="#275799">
                    <path d="M121.670855,39.1200426 L111.916548,24.6579149 L121.756352,10.9106809 L118.32499,10.9106809 C116.335166,10.9302553 113.385309,11.5017447 111.442274,14.3625957 C110.432049,15.859617 108.065358,19.5183404 108.033881,19.526 L107.929243,19.6779149 L102.337063,10.9106809 L93.5929816,10.9106809 L103.631427,25.0889787 L93.8886053,39.1200426 L101.979763,39.1200426 L107.929243,30.5634468 L113.809391,39.1200426 L121.670855,39.1200426 Z" id="Fill-13"></path>
                    <path d="M131.707897,39.1200426 L131.707897,10.1528085 C130.919283,10.3545106 127.55768,11.3536596 125.73885,13.2549362 C124.969378,14.0677021 124.573369,15.0004681 124.573369,15.7506809 L124.573369,39.1200426 L131.707897,39.1200426 Z" id="Fill-15"></path>
                    <path d="M167.994156,37.8646383 C169.377845,39.1161277 171.02951,39.5982553 173.497436,39.5982553 C176.097224,39.5982553 177.950508,39.0152766 179.590688,38.0897447 L179.590688,33.2186809 C178.491138,33.7122979 177.274189,34.0080426 175.922402,34.0080426 L175.906663,34.0080426 C174.946631,34.0080426 174.153764,33.7591064 173.648864,33.1952766 C173.108234,32.627617 172.921927,31.8191064 172.921927,30.8195319 L172.921927,16.8199574 L179.034745,16.8199574 L182.32659,10.9144255 L172.921927,10.9144255 L172.921927,0.231021277 C170.135408,1.21059574 167.804021,2.78165957 166.975849,3.75314894 C166.109396,4.80293617 165.802712,5.68548936 165.802712,7.36889362 L165.802712,31.2825106 C165.802712,34.5791064 166.626205,36.620383 167.994156,37.8646383" id="Fill-17"></path>
                    <path d="M191.956692,34.0352766 C190.817584,33.3280426 190.363301,32.0680426 190.363301,30.9135745 C190.363301,30.1246383 190.584488,29.3816596 190.914991,28.8488936 C191.723171,27.5897447 193.300823,26.800383 195.932087,26.7459149 L196.534393,26.7301702 C199.452774,26.7301702 201.077216,27.2863404 201.077216,27.2863404 L201.077216,29.6148511 C201.077216,31.1352766 200.420463,33.1837872 198.244332,34.1361277 C197.179236,34.587617 196.060119,34.8322979 194.999277,34.8322979 C193.891645,34.8322979 192.838459,34.5680426 191.956692,34.0352766 M195.675596,10.5999574 C191.723171,10.5846383 188.031064,12.1629362 187.320291,12.6918723 C186.745207,13.126766 186.379825,13.7101702 186.379825,14.5033617 L186.379825,18.2820851 C188.975784,17.3957021 192.39949,16.8710213 194.474811,16.8710213 C196.608406,16.8710213 198.391931,17.1042128 199.58506,18.0799574 C200.937273,19.1999574 201.112095,21.0654894 201.112095,21.9484681 L201.077216,22.4578298 L201.077216,22.5935745 L200.952586,22.574 C200.952586,22.574 197.801109,22.2242128 194.498205,22.2242128 C191.206361,22.2242128 188.307547,22.8348511 186.313469,24.401234 C184.572905,25.7463404 183.201126,28.3395319 183.201126,31.0727234 C183.201126,34.1791064 184.588218,36.3799574 186.173526,37.6782553 C187.814132,39.0233617 190.864798,39.6646383 193.448847,39.6646383 C196.2158,39.6646383 198.080995,39.2059149 199.270295,38.727617 C200.420463,38.2808085 200.902393,37.8378298 200.902393,37.8378298 L201.077216,37.6625106 L201.077216,39.1284681 L207.83913,39.1284681 L207.83913,22.6910213 C207.83913,18.8654894 207.167064,15.7437872 205.17724,13.7178298 C202.546402,11.0471915 199.483825,10.5999574 195.675596,10.5999574" id="Fill-19"></path>
                    <path d="M144.765618,34.0352766 C143.626935,33.3280426 143.172227,32.0680426 143.172227,30.9135745 C143.172227,30.1246383 143.390011,29.3816596 143.739655,28.8488936 C144.532097,27.5897447 146.117831,26.800383 148.741013,26.7459149 L149.343745,26.7301702 C152.2617,26.7301702 153.90188,27.2863404 153.90188,27.2863404 L153.90188,29.6148511 C153.90188,31.1352766 153.245127,33.1837872 151.04943,34.1361277 C150.000497,34.587617 148.849904,34.8322979 147.79289,34.8322979 C146.716309,34.8322979 145.666951,34.5680426 144.765618,34.0352766 M148.484522,10.5999574 C144.532097,10.5846383 140.856154,12.1629362 140.144955,12.6918723 C139.5737,13.126766 139.189176,13.7101702 139.189176,14.5033617 L139.189176,18.2820851 C141.79662,17.3957021 145.208416,16.8710213 147.291393,16.8710213 C149.417332,16.8710213 151.216596,17.1042128 152.394411,18.0799574 C153.742371,19.1999574 153.917618,21.046766 153.917618,21.9484681 L153.90188,22.4654894 L153.886142,22.5935745 L153.777675,22.574 C153.777675,22.574 150.625773,22.2242128 147.32287,22.2242128 C144.015287,22.2242128 141.131786,22.8348511 139.118992,24.401234 C137.381831,25.7463404 136.010052,28.3395319 136.010052,31.0727234 C136.010052,34.1791064 137.381831,36.3799574 138.982878,37.6782553 C140.623058,39.0233617 143.689037,39.6646383 146.257773,39.6646383 C149.024726,39.6646383 150.889921,39.2059149 152.059655,38.727617 C153.245127,38.2808085 153.711319,37.8378298 153.711319,37.8378298 L153.90188,37.6625106 L153.90188,39.120383 L160.663794,39.120383 L160.663794,22.6910213 C160.663794,18.8654894 159.980244,15.7437872 158.005733,13.7178298 C155.336187,11.0471915 152.292751,10.5999574 148.484522,10.5999574" id="Fill-21"></path>
                    <path d="M75.2802618,34.0352766 C74.1220123,33.3280426 73.6868712,32.0680426 73.6868712,30.9135745 C73.6868712,30.1246383 73.8889162,29.3816596 74.2232474,28.8488936 C75.0314274,27.5897447 76.6171616,26.800383 79.2556564,26.7459149 L79.8503067,26.7301702 C82.7763436,26.7301702 84.4007853,27.2863404 84.4007853,27.2863404 L84.4007853,29.6148511 C84.4007853,31.1352766 83.7440327,33.1837872 81.5636483,34.1361277 C80.5147157,34.587617 79.3645481,34.8322979 78.3071084,34.8322979 C77.1999018,34.8322979 76.1620286,34.5680426 75.2802618,34.0352766 M78.9834274,10.5999574 C75.0314274,10.5846383 71.3359182,12.1629362 70.6438609,12.6918723 C70.0883436,13.126766 69.6880818,13.7101702 69.6880818,14.5033617 L69.6880818,18.2820851 C72.2951002,17.3957021 75.7230593,16.8710213 77.7902986,16.8710213 C79.9162372,16.8710213 81.715501,17.1042128 82.9086299,18.0799574 C84.2608425,19.1999574 84.4165235,21.046766 84.4165235,21.9484681 L84.4007853,22.4654894 L84.385047,22.5935745 L84.2727526,22.574 C84.2727526,22.574 81.1404172,22.2242128 77.8060368,22.2242128 C74.5141922,22.2242128 71.6311166,22.8348511 69.633636,24.401234 C67.8964744,25.7463404 66.5089571,28.3395319 66.5246953,31.0727234 C66.5246953,34.1791064 67.8964744,36.3799574 69.4970961,37.6782553 C71.1377014,39.0233617 74.1883681,39.6646383 76.7762454,39.6646383 C79.5393701,39.6646383 81.3888262,39.2059149 82.581955,38.727617 C83.7440327,38.2808085 84.2102249,37.8378298 84.2102249,37.8378298 L84.4007853,37.6625106 L84.4007853,39.120383 L91.1626994,39.120383 L91.1626994,22.6910213 C91.1703558,18.8654894 90.4787239,15.7437872 88.5008098,13.7178298 C85.8504049,11.0471915 82.8112229,10.5999574 78.9834274,10.5999574" id="Fill-23"></path>
                    <polygon id="Fill-25" points="10.0459746 25.0076596 0.765941922 11.1204255 9.7737456 11.1204255 14.7712753 19.0787234 19.8041096 11.1204255 28.6064654 11.1204255 19.3260074 24.9221277 29.0105554 39.3770213 20.0176393 39.3770213 14.6160196 30.8548936 9.16378241 39.3770213 0.358023722 39.3770213"></polygon>
                    <polygon id="Fill-27" points="31.9527558 11.1213617 39.7831689 11.1213617 39.7831689 32.5234894 53.4550217 32.5234894 53.4550217 39.3775319 31.9527558 39.3775319"></polygon>
                </g>
            </g>
        </g>
    </g>
</svg>